<svg width="80" height="80" viewBox="0 0 80 80" fill="none" xmlns="http://www.w3.org/2000/svg">
<rect x="0.5" y="0.5" width="79" height="79" rx="19.5" fill="#8EA1E4"/>
<rect x="0.5" y="0.5" width="79" height="79" rx="19.5" stroke="#2F3136"/>
<path d="M25.9673 24.96H37.2873V39.76C35.794 40.2667 34.234 40.6667 32.6073 40.96C31.0073 41.2533 29.1807 41.4 27.1273 41.4C24.3007 41.4 21.8873 40.84 19.8873 39.72C17.914 38.6 16.4073 36.9467 15.3673 34.76C14.354 32.5733 13.8473 29.88 13.8473 26.68C13.8473 23.6933 14.4207 21.1067 15.5673 18.92C16.7407 16.7333 18.434 15.04 20.6473 13.84C22.8607 12.64 25.5673 12.04 28.7673 12.04C30.2873 12.04 31.7807 12.2 33.2473 12.52C34.714 12.84 36.0473 13.2667 37.2473 13.8L35.2473 18.64C34.3673 18.1867 33.3673 17.8133 32.2473 17.52C31.1273 17.2267 29.954 17.08 28.7273 17.08C26.9673 17.08 25.434 17.48 24.1273 18.28C22.8473 19.08 21.8473 20.2133 21.1273 21.68C20.434 23.12 20.0873 24.8267 20.0873 26.8C20.0873 28.6667 20.3407 30.32 20.8473 31.76C21.354 33.2 22.154 34.3333 23.2473 35.16C24.3407 35.96 25.7673 36.36 27.5273 36.36C28.114 36.36 28.6207 36.3467 29.0473 36.32C29.5007 36.2667 29.914 36.2133 30.2873 36.16C30.6607 36.08 31.0207 36.0133 31.3673 35.96V30H25.9673V24.96Z" fill="white"/>
<path d="M55.9856 32.08C54.839 32.08 53.8123 32.3067 52.9056 32.76C52.0256 33.2133 51.279 33.8667 50.6656 34.72C50.0523 35.5467 49.5856 36.56 49.2656 37.76C48.9723 38.96 48.8256 40.3067 48.8256 41.8C48.8256 43.8267 49.0656 45.56 49.5456 47C50.0523 48.4133 50.839 49.4933 51.9056 50.24C52.9723 50.9867 54.3323 51.36 55.9856 51.36C57.159 51.36 58.319 51.2267 59.4656 50.96C60.639 50.6933 61.9056 50.32 63.2656 49.84V54.92C62.0123 55.4267 60.7723 55.8 59.5456 56.04C58.319 56.28 56.9456 56.4 55.4256 56.4C52.4923 56.4 50.0656 55.8 48.1456 54.6C46.2523 53.3733 44.8523 51.6667 43.9456 49.48C43.039 47.2667 42.5856 44.6933 42.5856 41.76C42.5856 39.6 42.879 37.6267 43.4656 35.84C44.0523 34.0267 44.9056 32.4667 46.0256 31.16C47.1723 29.8533 48.5723 28.84 50.2256 28.12C51.9056 27.4 53.8256 27.04 55.9856 27.04C57.399 27.04 58.8123 27.2267 60.2256 27.6C61.6656 27.9467 63.039 28.4267 64.3456 29.04L62.3856 33.96C61.319 33.4533 60.239 33.0133 59.1456 32.64C58.079 32.2667 57.0256 32.08 55.9856 32.08Z" fill="white"/>
<path d="M13.4512 38.2852C14.2135 39.8861 16.2818 41.9615 20.1553 43.5049C24.0187 45.0443 29.6492 46.0401 37.4658 45.501L37.9336 45.4688L37.9961 45.9336C38.4857 49.6056 40.0729 53.8508 43.5137 56.8086C46.3493 59.2461 50.4975 60.8532 56.4629 60.4932C57.7489 60.3333 59.0733 60.1705 60.4395 60.0039L60.5 60.5L60.5898 60.9922C59.1611 61.252 57.811 61.4139 56.5361 61.4912C38.5707 63.7266 28.3161 65.4932 16.7568 72.4287L16.0781 71.7314C18.7706 67.5004 18.8035 61.1661 17.6699 54.8506C16.5415 48.5641 14.2824 42.431 12.5469 38.7119L13 38.5L13.4512 38.2852ZM14.8545 41.5615C16.2947 45.2022 17.7956 49.8898 18.6543 54.6738C19.6695 60.33 19.8057 66.2277 17.7783 70.6777C27.6688 65.0754 36.8979 63.0847 50.8564 61.2139C47.5187 60.6307 44.8939 59.3137 42.8613 57.5664C39.3244 54.5257 37.6539 50.2513 37.0742 46.5273C29.3805 47.0048 23.7401 46.0104 19.7852 44.4346C17.6911 43.6002 16.0633 42.5973 14.8545 41.5615Z" fill="white"/>
</svg>
